<?xml version="1.0" encoding="utf-8"?>
<!-- Generator: Adobe Illustrator 27.2.0, SVG Export Plug-In . SVG Version: 6.00 Build 0)  -->
<svg version="1.1" id="Layer_1" xmlns="http://www.w3.org/2000/svg" xmlns:xlink="http://www.w3.org/1999/xlink" x="0px" y="0px"
	 viewBox="0 0 22.9 34.7" style="enable-background:new 0 0 22.9 34.7;" xml:space="preserve">
<style type="text/css">
	.st0{fill:#6F9773;}
	.st1{fill:#0F1A1B;}
	.st2{fill:#5D2528;}
	.st3{fill:#E8DBBB;}
	.st4{fill:#D08A95;}
	.st5{fill:#FFFFFF;}
</style>
<g>
	<path d="M18.8,5.9C19,6,18.5,6.8,18.5,7.1c-0.6-0.1-0.8,0.1-1.1,0.3c-0.1,0.9,0.5,1.1,0.8,1.7c-0.6,1.4-1,3-1.7,4.4
		c-0.2-5-0.9-9.5-4.2-11.3c-0.1-1.7,0.2-3.4,0.7-4.9l-0.4-0.1c-0.4,1.4-0.7,3-0.8,4.9c-0.5,0.1-0.5-0.3-1.1-0.2
		c0-1.5,0.2-2.8,0.5-4.1L11-2.4c-0.4,1.3-0.7,2.7-1,4.1c-0.6,0-1.2,0-1.8,0C8,0.5,7.5-0.7,7.1-1.7L6.8-1.6c0.4,1.1,0.8,2.2,1,3.6
		C7.3,1.4,7,0.6,6.7-0.1L6.3,0C6.6,0.6,6.8,1.3,7,2C6.7,2,7,2.2,7.1,2c-0.2,0.5-0.8,1-1,1.3c-3.1,4.2-2,11-1.5,17.3l0.4,0
		c-0.1-1.1-0.1-2.2-0.2-3.2c-0.2-2-0.3-4.1-0.3-6.3c0-2.8,1.1-7.5,3-8.5c0.6-0.3,1.7-0.3,2.3-0.3c4.7,0,5.9,5.1,6.2,9.8
		c0.2,3.4-0.3,6.4-1.1,10c-0.5,2.4-0.7,4.8-1.5,6.4l0.3,0.1c1.5-3,1.6-7.3,2.5-10.8c0.5-0.4,0.9-1.1,1.2-1.7c1.1-1.9,2-3.9,3.2-5.6
		c1.5,0.5,2.5-0.8,2.3-2.6C21.7,7.2,20.5,5.2,18.8,5.9z M17.9,7.9c0-0.4,0.5-0.3,0.9-0.3C19,8.2,19.6,8,19.2,8.8
		C18.4,8.8,18.3,8.2,17.9,7.9z M16.5,16.6c-0.3-2.8,1.4-4.8,2-7.3c0.9,0,1.3,0.4,1.5,1.1C18.7,12.4,17.7,14.6,16.5,16.6z M22.1,9.5
		c-0.8,0.9-2.7,0.4-2.3-1.2c0.1-0.6,0.7-0.6,0.9-1.1c-0.5-0.7-0.9,0.1-1.4,0.3c-0.4-0.5-0.4-1.4,0.8-1.2C20.9,7.4,22.7,7.7,22.1,9.5
		z"/>
	<path class="st0" d="M20.1,6.4c-1.2-0.2-1.2,0.8-0.8,1.2c0.4-0.2,0.9-1,1.4-0.3c-0.2,0.5-0.8,0.5-0.9,1.1c-0.4,1.6,1.5,2.1,2.3,1.2
		C22.7,7.7,20.9,7.4,20.1,6.4z"/>
	<path d="M13.8-8.6c0.4,0,0.3,0.5,0.8,0.5c-0.6,1.8-1.4,3.4-2,5.3L13-2.8c0.5-1.8,1.3-3.4,2-4.9c0.1,0.1,0.9,0.5,0.8,0
		c-0.1-0.3-0.8,0-0.6-0.6c0.4-0.8,0.7-1.6,1.2-2.3c0.2-0.2,0.6,0.1,0.9,0.2c0.1-0.5-0.5-0.4-0.5-0.9c0.4-0.5,0.7-1.1,1.2-1.4
		c0.3,0.1,0.4,0.5,0.9,0.5c0.1-0.7-0.6-0.4-0.6-0.9c0.5-0.6,1.7-0.7,1.4-2.1c-1,0.3-1.5,0.9-2.3,1.4c-0.4,0-0.3-0.5-0.8-0.5
		c-0.2,0.6,0.4,0.4,0.3,0.9c-0.6,0.2-0.9,1.1-1.7,0.8c0,1.2-1.1,2.3-1.7,3.3c0-0.4-0.4-0.4-0.8-0.5c-0.1,0.6,0.6,0.4,0.6,0.9
		c-1,2-1.8,4.2-2.5,6.5l0.3,0.1C11.9-4.5,13-6.6,13.8-8.6z M17.6-13.1c-0.4,0.6-1,1-1.2,1.8c-0.3,0-0.1-0.5-0.5-0.5
		C16.4-12.3,16.9-12.8,17.6-13.1z M15.5-11.4c1.2,0.6-0.6,2-0.8,3c-0.3,0-0.3-0.4-0.6-0.5C14.4-9.8,15.1-10.5,15.5-11.4z"/>
	<path class="st0" d="M19.2,8.8C19.6,8,19,8.2,18.8,7.6c-0.4,0-0.9-0.1-0.9,0.3C18.3,8.2,18.4,8.8,19.2,8.8z"/>
	<path class="st0" d="M18.5,9.4c-0.5,2.4-2.3,4.5-2,7.3c1.1-2.1,2.2-4.2,3.5-6.2C19.8,9.8,19.3,9.4,18.5,9.4z"/>
	<path class="st1" d="M16.4-11.3c0.2-0.8,0.8-1.2,1.2-1.8c-0.7,0.3-1.2,0.8-1.7,1.4C16.3-11.8,16.1-11.3,16.4-11.3z"/>
	<path class="st0" d="M5.3,23.9c0.4,2.1,2,7.8,4.1,7.9c1.1,0.1,3-1.7,3.8-3c0.1-0.1,0.1-0.2,0.2-0.3c0.8-1.5,1-3.9,1.5-6.4
		c0.7-3.6,1.2-6.6,1.1-10c-0.3-4.7-1.5-9.9-6.2-9.8c-0.5,0-1.6,0-2.3,0.3c-1.9,1-3,5.7-3,8.5c0,2.3,0.1,4.3,0.3,6.3
		c0.1,1,0.1,2.1,0.2,3.2c0.1,1,0.2,2,0.3,2.9C5.3,23.7,5.3,23.8,5.3,23.9z M9.6,25.3c0.4-0.2,0.7,0.3,1.2,0.3c1,0,1.7-0.5,2.1-1.2
		c0.1-0.5-0.3-0.5-0.2-1.1c0.5-0.1,0.3,0.4,0.6,0.5C13.7,25.9,10.4,27,9.6,25.3z M8.8,4.6c0.4,0.4,1.5,0,1.5,0.8
		C9.6,5.3,8.7,5.4,8.8,4.6z M6.7,4.6C7.9,4.9,9,6.2,10.9,5.8C11.7,5.6,12.1,5,12.7,5c0.1,0.7-0.5,0.6-0.6,1.1
		c0.4,0.8,1.2,1.4,1.5,2.6c0.6,2.2-0.4,6.1-1.7,6.9c-1.1,0.7-3.4,0.8-4.1,0.2c-0.1-0.1-1.3-2.1-1.4-2.4c-0.8-2.5,0.4-5.6,0.8-7.4
		C7.2,5.4,6.6,5.4,6.7,4.6z M6.7,17.6c1.4-0.4,2,0.9,3,1.1c2.5,0.3,4.1-2.1,5-3.9c0,0,0.1,0,0.2,0c0.6,0.3-0.2,1.2-0.5,1.7
		c-0.5,1.2-1,2.5-1.5,3.9c-0.5,1.4-0.9,2.9-1.4,4.5c-0.8,0.2-0.8-0.5-1.5-0.5c-1.3,0.3-1.5,1.7-2.4,2.4c-0.8-0.9-0.9-2.5-1.2-4.7
		C6.1,20,5.8,18.5,6.7,17.6z"/>
	<path class="st1" d="M14.7-8.4c0.2-1,2-2.4,0.8-3c-0.4,0.9-1,1.6-1.4,2.6C14.4-8.8,14.4-8.5,14.7-8.4z"/>
	<path class="st2" d="M7.6,26.8c0.9-0.7,1.1-2.1,2.4-2.4c0.7-0.1,0.7,0.6,1.5,0.5c0.5-1.7,0.9-3.2,1.4-4.5c0.5-1.4,1-2.7,1.5-3.9
		c0.2-0.5,1-1.4,0.5-1.7c0,0-0.1,0-0.2,0c-0.9,1.9-2.5,4.2-5,3.9c-1-0.1-1.6-1.5-3-1.1c-0.9,1-0.6,2.4-0.3,4.5
		C6.7,24.3,6.8,25.8,7.6,26.8z M10.5,20.6c0.2,1.3-0.5,1.9-1.7,1.8c-0.8,0.4-1,1.5-1.4,2.4C6.8,22.9,8.1,19.4,10.5,20.6z"/>
	<path class="st1" d="M13.8-8.6c-0.8,2-1.8,4-2.5,6.3c-0.4,1.3-0.6,2.7-0.5,4.1c0.5-0.1,0.6,0.2,1.1,0.2c0-1.9,0.3-3.4,0.8-4.9
		c0.6-1.9,1.3-3.5,2-5.3C14.1-8.1,14.2-8.6,13.8-8.6z"/>
	<path d="M6.5,13.3c0.1,0.3,1.2,2.3,1.4,2.4c0.7,0.6,3,0.6,4.1-0.2c1.2-0.8,2.3-4.7,1.7-6.9c-0.3-1.1-1.1-1.8-1.5-2.6
		c0.1-0.4,0.7-0.4,0.6-1.1c-0.7,0-1.1,0.6-1.8,0.8C9,6.2,7.9,4.9,6.7,4.6C6.6,5.4,7.2,5.4,7.3,5.9C6.9,7.7,5.8,10.8,6.5,13.3z
		 M10.2,7.9c-0.2,0.2-0.6,0.2-0.8,0C9.3,7.3,10.3,7,10.2,7.9z M7.9,6.2c0.2,0,0.3,0,0.3,0.2c-0.2,2.3-0.5,5,1.5,5
		c1.4,0,2-1.5,1.8-3.3c-0.1-0.6-0.5-1.3-0.2-1.7c0.5-0.2,0.8,0.7,1.1,1.2c1.2,2.8,0.8,8.6-3.6,8C6.3,14.1,6.5,8.8,7.9,6.2z"/>
	<path d="M13.2,28.7c-0.8,1.3-2.7,3.1-3.8,3c-2.1-0.1-3.7-5.7-4.1-7.9c0-0.1,0-0.2-0.1-0.4l-0.4,0.1c0,0,0,0-0.1,0h0
		c-1.1-0.4-2.4,0.7-2.8,1.8c0,0.7,0.7,0.7,0.9,1.2C2,26.2,2.4,28,1.6,28l-0.4,0c0,0.1,0,0.3,0,0.4c0.4,0,0.6,0.2,1.1,0.2
		c0.1-0.9,0.7-1.3,1.2-1.7c0.1-0.9-0.7-0.8-0.8-1.5c0.4-0.7,1.1-1.1,2.3-1.1c0.6,2.8,1.5,5.3,3,7.3c0.1,1.1-0.4,2.9,0.6,3.2
		c0.9-0.2,1-1.2,1.1-2.3c0.5-0.3,1-0.7,1.7-0.9c0.1,1,0.2,2.1,1.1,2.4c1.7-0.3,0.6-2.8,0.3-3.8c0.4-0.5,0.8-1.1,1.1-1.7l-0.3-0.1
		C13.3,28.5,13.2,28.6,13.2,28.7z M8.5,34.3c-0.2-0.6-0.5-1.7-0.2-2.4c0.3,0.1,0.4,0.4,0.9,0.3C9.1,33,9.2,34.1,8.5,34.3z
		 M12.4,33.6c-0.7-0.4-1-1.9-0.5-2.7C12.7,31,13,33,12.4,33.6z"/>
	<path d="M12.7,23.3c-0.1,0.5,0.2,0.6,0.2,1.1c-0.4,0.7-1.1,1.2-2.1,1.2c-0.5,0-0.8-0.5-1.2-0.3c0.8,1.8,4.1,0.6,3.8-1.5
		C13,23.7,13.2,23.2,12.7,23.3z"/>
	<path class="st3" d="M8.8,15.6c4.4,0.6,4.9-5.3,3.6-8c-0.2-0.5-0.5-1.4-1.1-1.2C11,6.8,11.5,7.5,11.5,8c0.2,1.8-0.5,3.3-1.8,3.3
		c-2,0-1.8-2.7-1.5-5c0-0.1-0.1-0.2-0.3-0.2C6.5,8.8,6.3,14.1,8.8,15.6z"/>
	<path class="st0" d="M12,30.8c-0.6,0.8-0.2,2.3,0.5,2.7C13,33,12.7,31,12,30.8z"/>
	<path class="st4" d="M8.8,22.4c1.2,0,1.8-0.5,1.7-1.8c-2.4-1.2-3.7,2.3-3,4.2C7.8,23.9,8,22.8,8.8,22.4z"/>
	<path class="st5" d="M10.2,7.9c0.2-0.9-0.8-0.6-0.8,0C9.6,8.1,10,8.1,10.2,7.9z"/>
	<path d="M10.3,5.3c0-0.7-1.1-0.4-1.5-0.8C8.7,5.4,9.6,5.3,10.3,5.3z"/>
	<path class="st0" d="M8.4,31.9c-0.3,0.7-0.1,1.8,0.2,2.4c0.7-0.2,0.6-1.3,0.8-2.1C8.8,32.3,8.7,32,8.4,31.9z"/>
	<path class="st1" d="M5.6-3.1c0.4,0.9,0.7,2,1.1,3C7,0.6,7.3,1.4,7.7,2c-0.2-1.4-0.5-2.5-1-3.6C6.6-2.2,6.3-2.7,6.1-3.3
		C5.9-3.3,5.7-3.3,5.6-3.1z"/>
	<path d="M5.6-3.1c0-0.2,0.3-0.1,0.5-0.2c0.2,0.6,0.5,1.1,0.7,1.7l0.3-0.1C6.8-2.5,6.6-3.2,6.5-3.9c-0.5-0.3-0.7-0.7-1-1.2L5.3-5
		c0.2,0.4,0.3,0.8,0.5,1.3C4.9-4.1,4.3-5.6,4.3-6.3v-0.3c-0.4,0-0.6-0.3-0.8-0.6L3.2-7.2C3.3-6.7,3.3-6.3,2.9-6
		c0.1,0.4,0.5-0.2,0.9,0C4.1-5.1,4.6-4.3,5-3.6C4.8-3.3,4-3.6,4.1-3c0.5,0.1,0.7-0.1,1.1-0.2C5.5-2.1,6-1.1,6.3,0l0.4-0.1
		C6.4-1.1,6.1-2.2,5.6-3.1z"/>
	<path d="M3.1-8.3c0.6,0.3,1,0.9,1.2,1.7v0.3C4.7-6,5-5.5,5.3-5l0.3-0.1C5.4-5.6,5.2-6.2,4.9-6.6C5-6.8,5.1-7,5-7.4
		c-0.3,0-0.3,0.2-0.5,0.3C3.9-7.8,3.7-8.6,3.7-9.6C3.5-9.4,3.5-9.1,3.2-9C2.5-9.8,2-10.7,1-11.1c0.3,1,1,1.8,1.4,2.7
		C2-8.7,1.8-8.4,1.7-8.1c0.6-0.1,1.2,0.4,1.5,1l0.4-0.1C3.4-7.6,3.3-8,3.1-8.3z M2.9-8.6C2.2-9,2.7-9.5,2.9-8.6L2.9-8.6z"/>
	<path class="st1" d="M4.3-6.3c0.1,0.7,0.6,2.2,1.5,2.6C5.6-4.2,5.5-4.6,5.3-5C5-5.5,4.7-6,4.3-6.3z"/>
	<path d="M0.5,25.7c0.3-0.2,0.8-0.2,1.1-0.5c-0.2-1.9,1.6-2.5,3.2-2.1c0,0.2,0,0.4,0.1,0.4h0c0,0,0,0,0.1,0l0.4-0.1
		c-0.2-1-0.2-2-0.3-2.9l-0.4,0c0.1,0.7,0.1,1.4,0.1,2.1c-1.4-0.4-2.9,0.3-3.6,1.2C1,24.1,1.2,24.4,1,24.8c-0.3,0.6-0.8,0.6-0.9,0.9
		c-0.3,1.6,1,1.2,1.1,2.3l0.4,0C2.1,26.4,0.2,27.2,0.5,25.7z"/>
	<path class="st5" d="M4.9,23.6C4.9,23.6,4.8,23.6,4.9,23.6C4.8,23.6,4.9,23.6,4.9,23.6z"/>
	<path class="st0" d="M4.7,23.1c-1.5-0.3-3.3,0.2-3.2,2.1c-0.2,0.3-0.7,0.3-1.1,0.5c-0.3,1.5,1.6,0.6,1.1,2.3c0.9,0,0.5-1.8,1.4-1.4
		C2.7,26.1,2,26.1,2,25.4c0.4-1.1,1.7-2.2,2.8-1.8C4.7,23.5,4.7,23.3,4.7,23.1z"/>
	<path class="st1" d="M3.1-8.3C3.3-8,3.4-7.6,3.5-7.2c0.1,0.3,0.3,0.6,0.8,0.6C4-7.3,3.7-7.9,3.1-8.3z"/>
	<path class="st1" d="M2.9-8.6C2.7-9.5,2.2-9,2.9-8.6L2.9-8.6z"/>
</g>
</svg>
